<svg stroke-miterlimit="10" style="fill-rule:nonzero;clip-rule:evenodd;stroke-linecap:round;stroke-linejoin:round" viewBox="0 0 1024 1024" xml:space="preserve" xmlns="http://www.w3.org/2000/svg" xmlns:vectornator="http://vectornator.io">
  <clipPath id="a">
    <path d="M0 0h1024v1024H0z"/>
  </clipPath>
  <g clip-path="url(#a)" vectornator:layerName="Capa 1">
    <g vectornator:layerName="Grupo 1">
      <path d="M976.691 976.691H47.3094V47.3094H976.691V976.691Z" fill="#4d6aff" stroke="#4d6aff" stroke-linecap="butt" stroke-width="94.7086" vectornator:layerName="Rectángulo 1"/>
    </g>
    <g vectornator:layerName="Grupo 3" fill="#fff">
      <path d="M528.061 240.958c0 44.96-18.656 80.535-55.969 106.723-37.312 26.188-88.183 39.283-152.61 39.283-9.271 0-17.73-.464-25.378-1.391s-15.411-2.318-23.291-4.172v102.9c0 18.54 4.403 32.214 13.21 41.02 8.807 8.807 26.652 14.601 53.535 17.382 1.391 0 2.666 1.97 3.824 5.91 1.159 3.94 1.739 7.068 1.739 9.386 0 2.781-.58 6.026-1.739 9.734-1.158 3.708-2.433 5.562-3.824 5.562-22.712 0-45.655-.58-68.831-1.738-23.175-1.159-45.424-1.739-66.745-1.739-21.322 0-43.455.58-66.398 1.739-22.944 1.158-45.772 1.738-68.484 1.738-1.3905 0-2.6652-1.738-3.824-5.215-1.1587-3.476-1.7381-6.836-1.7381-10.081 0-2.318.5794-5.33 1.7381-9.039 1.1588-3.708 2.4335-5.793 3.824-6.257 26.8836-3.244 44.613-9.038 53.188-17.382 8.575-8.343 12.862-22.016 12.862-41.02V167.955c0-15.296-4.519-26.304-13.557-33.025-9.039-6.721-26.5364-11.472-52.493-14.253-1.3905-.464-2.6652-2.55-3.824-6.258-1.1587-3.708-1.7381-6.721-1.7381-9.038 0-3.245.5794-6.6052 1.7381-10.0815 1.1588-3.4763 2.4335-5.2145 3.824-5.2145 22.712 0 46.467.5794 71.265 1.7382 24.798 1.1588 47.857 1.7381 69.179 1.7381 21.321 0 39.862-.5793 55.621-1.7381 15.759-1.1588 34.995-1.7382 57.707-1.7382 73.235 0 126.075 13.442 158.521 40.325 32.445 26.884 48.668 63.733 48.668 110.548Zm-143.225-9.734c0-40.325-6.257-68.252-18.772-83.78-12.514-15.527-30.36-23.291-53.535-23.291-14.832 0-25.493 3.476-31.982 10.429-6.49 6.953-9.734 18.077-9.734 33.373v159.911c0 10.661 4.751 17.497 14.253 20.51 9.502 3.013 16.107 4.52 19.815 4.52 27.347 0 47.51-10.198 60.488-30.592 12.978-20.395 19.467-50.755 19.467-91.08Z" vectornator:layerName="Texto 1"/>
      <path d="M840.706 914.254c-.439 2.631-1.425 5.7-2.96 9.208s-2.96 5.262-4.276 5.262c-12.278 0-28.503-.548-48.674-1.644-20.172-1.096-33.985-1.644-41.44-1.644-10.524 0-24.337.548-41.439 1.644-17.102 1.096-30.915 1.644-41.439 1.644l-82.879-168.388c-6.578-13.155-14.471-22.254-23.68-27.297-9.208-5.043-21.706-7.565-37.492-7.565V844.53c0 17.541 3.288 30.477 9.866 38.808 6.578 8.332 22.583 13.814 48.017 16.445 1.316 0 2.522 1.863 3.618 5.591 1.096 3.727 1.644 6.687 1.644 8.88 0 2.631-.548 5.7-1.644 9.208-1.096 3.508-2.302 5.262-3.618 5.262-21.487 0-42.316-.548-62.488-1.644-20.171-1.096-40.343-1.644-60.514-1.644-20.172 0-41.111.548-62.817 1.644-21.706 1.096-43.303 1.644-64.79 1.644-1.316 0-2.522-1.644-3.618-4.933-1.096-3.289-1.644-6.468-1.644-9.537 0-2.193.548-5.043 1.644-8.551 1.096-3.509 2.302-5.482 3.618-5.92 25.433-3.07 42.207-8.551 50.319-16.445 8.112-7.893 12.169-20.829 12.169-38.808V555.77c0-17.978-4.057-30.915-12.169-38.808-8.112-7.893-24.886-13.374-50.319-16.444-1.316-.438-2.522-2.412-3.618-5.92s-1.644-6.358-1.644-8.551c0-3.069.548-6.249 1.644-9.537 1.096-3.289 2.302-4.934 3.618-4.934 21.487 0 43.522.548 66.105 1.645 22.584 1.096 43.961 1.644 64.133 1.644 20.171 0 38.15-.548 53.937-1.644 15.786-1.097 34.423-1.645 55.91-1.645 71.039 0 122.344 11.73 153.917 35.191 31.573 23.46 47.36 50.977 47.36 82.55 0 29.818-7.126 53.827-21.378 72.025-14.252 18.198-37.383 32.121-69.394 41.768l90.114 150.629c9.208 15.348 18.636 26.311 28.284 32.888 9.647 6.578 24.556 10.963 44.728 13.156 1.315 0 2.302 1.863 2.96 5.591.658 3.727.767 6.687.329 8.88ZM629.562 601.156c0-33.765-6.139-58.431-18.417-73.998-12.278-15.568-31.134-23.351-56.568-23.351-15.786 0-26.091 3.069-30.915 9.209-4.824 6.139-7.235 16.882-7.235 32.23v148.656c2.631.438 6.468.877 11.51 1.315 5.043.439 9.757.658 14.142.658 31.135 0 53.499-7.016 67.093-21.049 13.594-14.032 20.39-38.589 20.39-73.67Z" vectornator:layerName="Texto 2"/>
      <path d="M981.076 753.851c0 27.855-9.517 51.532-28.552 71.031-19.034 19.499-45.915 29.248-80.641 29.248-34.726 0-61.653-9.795-80.781-29.387-19.127-19.592-28.691-43.222-28.691-70.892 0-27.67 9.564-51.625 28.691-71.867 19.128-20.241 46.055-30.362 80.781-30.362 33.984 0 60.678 9.981 80.084 29.944 19.406 19.963 29.109 44.058 29.109 72.285Zm-57.382 0c0-25.627-3.714-46.843-11.142-63.649-7.428-16.807-20.985-25.21-40.669-25.21-19.87 0-33.473 8.496-40.808 25.488-7.335 16.992-11.003 38.116-11.003 63.371 0 25.813 3.668 46.751 11.003 62.814 7.335 16.063 20.938 24.095 40.808 24.095 19.684 0 33.241-8.078 40.669-24.234 7.428-16.157 11.142-37.048 11.142-62.675Z" vectornator:layerName="Texto 4"/>
      <g vectornator:layerName="Texto 5">
        <path d="M853.997 216.309h-98.731l30.416-31.554c8.025-8.35 14.314-15.425 18.868-21.226 4.554-5.802 7.943-10.708 10.166-14.72 2.223-4.012 3.605-7.266 4.148-9.76.542-2.494.813-4.608.813-6.343 0-1.843-.298-3.633-.895-5.367-.596-1.735-1.491-3.281-2.684-4.636-1.192-1.356-2.629-2.44-4.31-3.253-1.681-.813-3.659-1.22-5.937-1.22-4.337 0-7.726 1.41-10.165 4.229-2.44 2.819-3.66 6.343-3.66 10.572 0 1.193.163 2.928.488 5.205h-34.808c0-7.156 1.166-13.663 3.497-19.518 2.332-5.856 5.612-10.898 9.841-15.127 4.229-4.2287 9.244-7.4818 15.045-9.7589 5.801-2.2771 12.172-3.4157 19.112-3.4157 6.831 0 13.148 1.0843 18.949 3.253 5.801 2.1687 10.816 5.2049 15.045 9.1086 4.229 3.904 7.536 8.539 9.922 13.907 2.386 5.367 3.578 11.196 3.578 17.485 0 6.723-1.436 12.931-4.31 18.624-2.874 5.692-7.455 11.521-13.744 17.485l-20.332 19.03h39.688v27ZM909.949 141.489c.867.109 1.599.163 2.196.163h1.545c4.012 0 7.265-1.193 9.759-3.578 2.494-2.386 3.741-5.476 3.741-9.272 0-3.686-1.166-6.668-3.497-8.946-2.331-2.277-5.34-3.415-9.027-3.415-3.904 0-7.048 1.301-9.434 3.903-2.386 2.603-3.578 5.964-3.578 10.085h-29.44c.759-6.398 2.358-12.091 4.798-17.079 2.44-4.988 5.557-9.189 9.352-12.605 3.796-3.4159 8.241-6.0183 13.338-7.8075 5.096-1.7892 10.735-2.6838 16.916-2.6838 6.072 0 11.575.8404 16.509 2.5212 4.934 1.6807 9.163 4.0663 12.687 7.1567 3.524 3.0904 6.235 6.8314 8.132 11.2234 1.898 4.391 2.847 9.298 2.847 14.72 0 5.855-1.112 10.653-3.334 14.394-2.223 3.741-5.395 6.967-9.516 9.678 6.29 1.952 11.196 5.449 14.72 10.491 3.525 5.043 5.287 11.25 5.287 18.624 0 6.072-1.193 11.603-3.579 16.591-2.385 4.988-5.72 9.271-10.003 12.849-4.283 3.578-9.379 6.344-15.289 8.295-5.91 1.952-12.389 2.928-19.437 2.928-9.434 0-17.946-1.843-25.537-5.53-7.59-3.687-13.662-9.542-18.217-17.567-2.06-3.578-3.443-7.156-4.147-10.735-.705-3.578-1.058-7.211-1.058-10.897h31.555c.217 5.747 1.898 10.111 5.042 13.093 3.145 2.982 7.374 4.473 12.687 4.473 5.639 0 9.759-1.518 12.362-4.554 2.602-3.036 3.903-6.777 3.903-11.223 0-5.313-1.572-9.326-4.717-12.036-3.144-2.711-6.885-4.067-11.223-4.067-1.084 0-2.114.082-3.09.244-.976.163-2.06.353-3.253.57v-20.007ZM853.997 432.309h-98.731l30.416-31.554c8.025-8.35 14.314-15.425 18.868-21.226 4.554-5.802 7.943-10.708 10.166-14.72 2.223-4.012 3.605-7.266 4.148-9.76.542-2.494.813-4.608.813-6.343 0-1.843-.298-3.633-.895-5.367-.596-1.735-1.491-3.281-2.684-4.636-1.192-1.356-2.629-2.44-4.31-3.253-1.681-.813-3.659-1.22-5.937-1.22-4.337 0-7.726 1.41-10.165 4.229-2.44 2.819-3.66 6.343-3.66 10.572 0 1.193.163 2.928.488 5.205h-34.808c0-7.156 1.166-13.663 3.497-19.518 2.332-5.856 5.612-10.898 9.841-15.127 4.229-4.229 9.244-7.482 15.045-9.759s12.172-3.416 19.112-3.416c6.831 0 13.148 1.085 18.949 3.253 5.801 2.169 10.816 5.205 15.045 9.109 4.229 3.904 7.536 8.539 9.922 13.907 2.386 5.367 3.578 11.196 3.578 17.485 0 6.723-1.436 12.931-4.31 18.624-2.874 5.692-7.455 11.521-13.744 17.485l-20.332 19.03h39.688v27ZM925.564 382.7v-48.307L897.425 382.7h28.139Zm29.602 0h14.802v24.398h-14.802v25.211h-29.602v-25.211h-59.206v-20.494l46.844-76.935h41.964V382.7Z"/>
      </g>
      <g vectornator:layerName="Grupo 2">
        <path d="M178.776 746.112c.814.326 1.058 1.547.733 3.665-.326 2.117-.896 3.908-1.71 5.374-.815 1.466-1.955 3.013-3.421 4.642-1.465 1.628-2.605 2.198-3.42 1.71l-94.7855-48.126c-1.1401-.652-1.9544-1.669-2.443-3.054-.4886-1.384-.7329-2.809-.7329-4.275 0-1.629.2443-3.094.7329-4.397.4886-1.303 1.3029-2.28 2.443-2.932l94.7855-48.126c.815-.488 1.995.123 3.543 1.833 1.547 1.71 2.646 3.216 3.298 4.519.651 1.466 1.18 3.257 1.587 5.375.408 2.117.204 3.338-.61 3.664l-79.8843 40.064 79.8843 40.064Z" vectornator:layerName="Texto 6"/>
        <path d="M335.143 783.718c0 1.303-.285 2.728-.855 4.275-.57 1.547-1.343 2.565-2.321 3.054l-94.785 48.126c-.815.325-1.955-.245-3.42-1.71-1.466-1.466-2.606-3.013-3.421-4.642-.977-1.954-1.587-3.827-1.832-5.619-.244-1.791.041-2.931.855-3.42l79.884-40.064-79.884-40.064c-.814-.489-1.018-1.71-.61-3.664.407-1.955.936-3.746 1.587-5.375.815-1.629 1.955-3.176 3.421-4.641 1.465-1.466 2.605-2.036 3.42-1.711l94.785 48.126c1.14.652 1.955 1.629 2.443 2.932.489 1.303.733 2.768.733 4.397Z" vectornator:layerName="Texto 7"/>
        <path d="m235.995 661.355-52.669 177.359c-.49.817-1.715 1.429-3.675 1.838-1.96.408-3.919.612-5.879.612-2.123 0-4.083-.204-5.879-.612-1.797-.409-2.532-1.021-2.205-1.838l52.669-177.359c.326-.98 1.592-1.633 3.797-1.959 2.204-.327 4.123-.49 5.756-.49 1.797 0 3.675.204 5.635.612 1.96.408 2.776 1.021 2.45 1.837Z" vectornator:layerName="Texto 8"/>
      </g>
    </g>
  </g>
</svg>
