<?xml version="1.0" encoding="UTF-8" standalone="no"?>
<!DOCTYPE svg PUBLIC "-//W3C//DTD SVG 1.1//EN" "http://www.w3.org/Graphics/SVG/1.1/DTD/svg11.dtd">
<!-- Created with Vectornator (http://vectornator.io/) -->
<svg height="100%" stroke-miterlimit="10" style="fill-rule:nonzero;clip-rule:evenodd;stroke-linecap:round;stroke-linejoin:round;" version="1.1" viewBox="0 0 1024 1024" width="100%" xml:space="preserve" xmlns="http://www.w3.org/2000/svg" xmlns:vectornator="http://vectornator.io" xmlns:xlink="http://www.w3.org/1999/xlink">
<defs/>
<clipPath id="ArtboardFrame">
<rect height="1024" width="1024" x="0" y="0"/>
</clipPath>
<g clip-path="url(#ArtboardFrame)" id="Capa-1" vectornator:layerName="Capa 1">
<g opacity="1" vectornator:layerName="Grupo 1">
<path d="M976.691 976.691L47.3094 976.691L47.3094 47.3094L976.691 47.3094L976.691 976.691Z" fill="#4d6aff" fill-rule="nonzero" opacity="1" stroke="#4d6aff" stroke-linecap="butt" stroke-linejoin="round" stroke-width="94.7086" vectornator:layerName="Rectángulo 1"/>
</g>
<g opacity="1" vectornator:layerName="Grupo 3">
<path d="M528.061 240.958C528.061 285.918 509.405 321.493 472.092 347.681C434.78 373.869 383.909 386.964 319.482 386.964C310.211 386.964 301.752 386.5 294.104 385.573C286.456 384.646 278.693 383.255 270.813 381.401L270.813 484.301C270.813 502.841 275.216 516.515 284.023 525.321C292.83 534.128 310.675 539.922 337.558 542.703C338.949 542.703 340.224 544.673 341.382 548.613C342.541 552.553 343.121 555.681 343.121 557.999C343.121 560.78 342.541 564.025 341.382 567.733C340.224 571.441 338.949 573.295 337.558 573.295C314.846 573.295 291.903 572.715 268.727 571.557C245.552 570.398 223.303 569.818 201.982 569.818C180.66 569.818 158.527 570.398 135.584 571.557C112.64 572.715 89.812 573.295 67.1 573.295C65.7095 573.295 64.4348 571.557 63.276 568.08C62.1173 564.604 61.5379 561.244 61.5379 557.999C61.5379 555.681 62.1173 552.669 63.276 548.96C64.4348 545.252 65.7095 543.167 67.1 542.703C93.9836 539.459 111.713 533.665 120.288 525.321C128.863 516.978 133.15 503.305 133.15 484.301L133.15 167.955C133.15 152.659 128.631 141.651 119.593 134.93C110.554 128.209 93.0566 123.458 67.1 120.677C65.7095 120.213 64.4348 118.127 63.276 114.419C62.1173 110.711 61.5379 107.698 61.5379 105.381C61.5379 102.136 62.1173 98.7758 63.276 95.2995C64.4348 91.8232 65.7095 90.085 67.1 90.085C89.812 90.085 113.567 90.6644 138.365 91.8232C163.163 92.982 186.222 93.5613 207.544 93.5613C228.865 93.5613 247.406 92.982 263.165 91.8232C278.924 90.6644 298.16 90.085 320.872 90.085C394.107 90.085 446.947 103.527 479.393 130.41C511.838 157.294 528.061 194.143 528.061 240.958ZM384.836 231.224C384.836 190.899 378.579 162.972 366.064 147.444C353.55 131.917 335.704 124.153 312.529 124.153C297.697 124.153 287.036 127.629 280.547 134.582C274.057 141.535 270.813 152.659 270.813 167.955L270.813 327.866C270.813 338.527 275.564 345.363 285.066 348.376C294.568 351.389 301.173 352.896 304.881 352.896C332.228 352.896 352.391 342.698 365.369 322.304C378.347 301.909 384.836 271.549 384.836 231.224Z" fill="#ffffff" opacity="1" stroke="none" vectornator:layerName="Texto 1"/>
<path d="M840.706 914.254C840.267 916.885 839.281 919.954 837.746 923.462C836.211 926.97 834.786 928.724 833.47 928.724C821.192 928.724 804.967 928.176 784.796 927.08C764.624 925.984 750.811 925.436 743.356 925.436C732.832 925.436 719.019 925.984 701.917 927.08C684.815 928.176 671.002 928.724 660.478 928.724L577.599 760.336C571.021 747.181 563.128 738.082 553.919 733.039C544.711 727.996 532.213 725.474 516.427 725.474L516.427 844.53C516.427 862.071 519.715 875.007 526.293 883.338C532.871 891.67 548.876 897.152 574.31 899.783C575.626 899.783 576.832 901.646 577.928 905.374C579.024 909.101 579.572 912.061 579.572 914.254C579.572 916.885 579.024 919.954 577.928 923.462C576.832 926.97 575.626 928.724 574.31 928.724C552.823 928.724 531.994 928.176 511.822 927.08C491.651 925.984 471.479 925.436 451.308 925.436C431.136 925.436 410.197 925.984 388.491 927.08C366.785 928.176 345.188 928.724 323.701 928.724C322.385 928.724 321.179 927.08 320.083 923.791C318.987 920.502 318.439 917.323 318.439 914.254C318.439 912.061 318.987 909.211 320.083 905.703C321.179 902.194 322.385 900.221 323.701 899.783C349.134 896.713 365.908 891.232 374.02 883.338C382.132 875.445 386.189 862.509 386.189 844.53L386.189 555.77C386.189 537.792 382.132 524.855 374.02 516.962C365.908 509.069 349.134 503.588 323.701 500.518C322.385 500.08 321.179 498.106 320.083 494.598C318.987 491.09 318.439 488.24 318.439 486.047C318.439 482.978 318.987 479.798 320.083 476.51C321.179 473.221 322.385 471.576 323.701 471.576C345.188 471.576 367.223 472.124 389.806 473.221C412.39 474.317 433.767 474.865 453.939 474.865C474.11 474.865 492.089 474.317 507.876 473.221C523.662 472.124 542.299 471.576 563.786 471.576C634.825 471.576 686.13 483.306 717.703 506.767C749.276 530.227 765.063 557.744 765.063 589.317C765.063 619.135 757.937 643.144 743.685 661.342C729.433 679.54 706.302 693.463 674.291 703.11L764.405 853.739C773.613 869.087 783.041 880.05 792.689 886.627C802.336 893.205 817.245 897.59 837.417 899.783C838.732 899.783 839.719 901.646 840.377 905.374C841.035 909.101 841.144 912.061 840.706 914.254ZM629.562 601.156C629.562 567.391 623.423 542.725 611.145 527.158C598.867 511.59 580.011 503.807 554.577 503.807C538.791 503.807 528.486 506.876 523.662 513.016C518.838 519.155 516.427 529.898 516.427 545.246L516.427 693.902C519.058 694.34 522.895 694.779 527.937 695.217C532.98 695.656 537.694 695.875 542.079 695.875C573.214 695.875 595.578 688.859 609.172 674.826C622.766 660.794 629.562 636.237 629.562 601.156Z" fill="#ffffff" opacity="1" stroke="none" vectornator:layerName="Texto 2"/>
<path d="M981.076 753.851C981.076 781.706 971.559 805.383 952.524 824.882C933.49 844.381 906.609 854.13 871.883 854.13C837.157 854.13 810.23 844.335 791.102 824.743C771.975 805.151 762.411 781.521 762.411 753.851C762.411 726.181 771.975 702.226 791.102 681.984C810.23 661.743 837.157 651.622 871.883 651.622C905.867 651.622 932.561 661.603 951.967 681.566C971.373 701.529 981.076 725.624 981.076 753.851ZM923.694 753.851C923.694 728.224 919.98 707.008 912.552 690.202C905.124 673.395 891.567 664.992 871.883 664.992C852.013 664.992 838.41 673.488 831.075 690.48C823.74 707.472 820.072 728.596 820.072 753.851C820.072 779.664 823.74 800.602 831.075 816.665C838.41 832.728 852.013 840.76 871.883 840.76C891.567 840.76 905.124 832.682 912.552 816.526C919.98 800.369 923.694 779.478 923.694 753.851Z" fill="#ffffff" opacity="1" stroke="none" vectornator:layerName="Texto 4"/>
<g fill="#ffffff" opacity="1" stroke="none" vectornator:layerName="Texto 5">
<path d="M853.997 216.309L755.266 216.309L785.682 184.755C793.707 176.405 799.996 169.33 804.55 163.529C809.104 157.727 812.493 152.821 814.716 148.809C816.939 144.797 818.321 141.543 818.864 139.049C819.406 136.555 819.677 134.441 819.677 132.706C819.677 130.863 819.379 129.073 818.782 127.339C818.186 125.604 817.291 124.058 816.098 122.703C814.906 121.347 813.469 120.263 811.788 119.45C810.107 118.637 808.129 118.23 805.851 118.23C801.514 118.23 798.125 119.64 795.686 122.459C793.246 125.278 792.026 128.802 792.026 133.031C792.026 134.224 792.189 135.959 792.514 138.236L757.706 138.236C757.706 131.08 758.872 124.573 761.203 118.718C763.535 112.862 766.815 107.82 771.044 103.591C775.273 99.3623 780.288 96.1092 786.089 93.8321C791.89 91.555 798.261 90.4164 805.201 90.4164C812.032 90.4164 818.349 91.5007 824.15 93.6694C829.951 95.8381 834.966 98.8743 839.195 102.778C843.424 106.682 846.731 111.317 849.117 116.685C851.503 122.052 852.695 127.881 852.695 134.17C852.695 140.893 851.259 147.101 848.385 152.794C845.511 158.486 840.93 164.315 834.641 170.279L814.309 189.309L853.997 189.309L853.997 216.309Z"/>
<path d="M909.949 141.489C910.816 141.598 911.548 141.652 912.145 141.652C912.741 141.652 913.256 141.652 913.69 141.652C917.702 141.652 920.955 140.459 923.449 138.074C925.943 135.688 927.19 132.598 927.19 128.802C927.19 125.116 926.024 122.134 923.693 119.856C921.362 117.579 918.353 116.441 914.666 116.441C910.762 116.441 907.618 117.742 905.232 120.344C902.846 122.947 901.654 126.308 901.654 130.429L872.214 130.429C872.973 124.031 874.572 118.338 877.012 113.35C879.452 108.362 882.569 104.161 886.364 100.745C890.16 97.3291 894.605 94.7267 899.702 92.9375C904.798 91.1483 910.437 90.2537 916.618 90.2537C922.69 90.2537 928.193 91.0941 933.127 92.7749C938.061 94.4556 942.29 96.8412 945.814 99.9316C949.338 103.022 952.049 106.763 953.946 111.155C955.844 115.546 956.793 120.453 956.793 125.875C956.793 131.73 955.681 136.528 953.459 140.269C951.236 144.01 948.064 147.236 943.943 149.947C950.233 151.899 955.139 155.396 958.663 160.438C962.188 165.481 963.95 171.688 963.95 179.062C963.95 185.134 962.757 190.665 960.371 195.653C957.986 200.641 954.651 204.924 950.368 208.502C946.085 212.08 940.989 214.846 935.079 216.797C929.169 218.749 922.69 219.725 915.642 219.725C906.208 219.725 897.696 217.882 890.105 214.195C882.515 210.508 876.443 204.653 871.888 196.628C869.828 193.05 868.445 189.472 867.741 185.893C867.036 182.315 866.683 178.682 866.683 174.996L898.238 174.996C898.455 180.743 900.136 185.107 903.28 188.089C906.425 191.071 910.654 192.562 915.967 192.562C921.606 192.562 925.726 191.044 928.329 188.008C930.931 184.972 932.232 181.231 932.232 176.785C932.232 171.472 930.66 167.459 927.515 164.749C924.371 162.038 920.63 160.682 916.292 160.682C915.208 160.682 914.178 160.764 913.202 160.926C912.226 161.089 911.142 161.279 909.949 161.496L909.949 141.489Z"/>
<path d="M853.997 432.309L755.266 432.309L785.682 400.755C793.707 392.405 799.996 385.33 804.55 379.529C809.104 373.727 812.493 368.821 814.716 364.809C816.939 360.797 818.321 357.543 818.864 355.049C819.406 352.555 819.677 350.441 819.677 348.706C819.677 346.863 819.379 345.073 818.782 343.339C818.186 341.604 817.291 340.058 816.098 338.703C814.906 337.347 813.469 336.263 811.788 335.45C810.107 334.637 808.129 334.23 805.851 334.23C801.514 334.23 798.125 335.64 795.686 338.459C793.246 341.278 792.026 344.802 792.026 349.031C792.026 350.224 792.189 351.959 792.514 354.236L757.706 354.236C757.706 347.08 758.872 340.573 761.203 334.718C763.535 328.862 766.815 323.82 771.044 319.591C775.273 315.362 780.288 312.109 786.089 309.832C791.89 307.555 798.261 306.416 805.201 306.416C812.032 306.416 818.349 307.501 824.15 309.669C829.951 311.838 834.966 314.874 839.195 318.778C843.424 322.682 846.731 327.317 849.117 332.685C851.503 338.052 852.695 343.881 852.695 350.17C852.695 356.893 851.259 363.101 848.385 368.794C845.511 374.486 840.93 380.315 834.641 386.279L814.309 405.309L853.997 405.309L853.997 432.309Z"/>
<path d="M925.564 382.7L925.564 334.393L897.425 382.7L925.564 382.7ZM955.166 382.7L969.968 382.7L969.968 407.098L955.166 407.098L955.166 432.309L925.564 432.309L925.564 407.098L866.358 407.098L866.358 386.604L913.202 309.669L955.166 309.669L955.166 382.7Z"/>
</g>
<g opacity="1" vectornator:layerName="Grupo 2">
<path d="M178.776 746.112C179.59 746.438 179.834 747.659 179.509 749.777C179.183 751.894 178.613 753.685 177.799 755.151C176.984 756.617 175.844 758.164 174.378 759.793C172.913 761.421 171.773 761.991 170.958 761.503L76.1725 713.377C75.0324 712.725 74.2181 711.708 73.7295 710.323C73.2409 708.939 72.9966 707.514 72.9966 706.048C72.9966 704.419 73.2409 702.954 73.7295 701.651C74.2181 700.348 75.0324 699.371 76.1725 698.719L170.958 650.593C171.773 650.105 172.953 650.716 174.501 652.426C176.048 654.136 177.147 655.642 177.799 656.945C178.45 658.411 178.979 660.202 179.386 662.32C179.794 664.437 179.59 665.658 178.776 665.984L98.8917 706.048L178.776 746.112Z" fill="#ffffff" opacity="1" stroke="none" vectornator:layerName="Texto 6"/>
<path d="M335.143 783.718C335.143 785.021 334.858 786.446 334.288 787.993C333.718 789.54 332.945 790.558 331.967 791.047L237.182 839.173C236.367 839.498 235.227 838.928 233.762 837.463C232.296 835.997 231.156 834.45 230.341 832.821C229.364 830.867 228.754 828.994 228.509 827.202C228.265 825.411 228.55 824.271 229.364 823.782L309.248 783.718L229.364 743.654C228.55 743.165 228.346 741.944 228.754 739.99C229.161 738.035 229.69 736.244 230.341 734.615C231.156 732.986 232.296 731.439 233.762 729.974C235.227 728.508 236.367 727.938 237.182 728.263L331.967 776.389C333.107 777.041 333.922 778.018 334.41 779.321C334.899 780.624 335.143 782.089 335.143 783.718Z" fill="#ffffff" opacity="1" stroke="none" vectornator:layerName="Texto 7"/>
<path d="M235.995 661.355L183.326 838.714C182.836 839.531 181.611 840.143 179.651 840.552C177.691 840.96 175.732 841.164 173.772 841.164C171.649 841.164 169.689 840.96 167.893 840.552C166.096 840.143 165.361 839.531 165.688 838.714L218.357 661.355C218.683 660.375 219.949 659.722 222.154 659.396C224.358 659.069 226.277 658.906 227.91 658.906C229.707 658.906 231.585 659.11 233.545 659.518C235.505 659.926 236.321 660.539 235.995 661.355Z" fill="#ffffff" opacity="1" stroke="none" vectornator:layerName="Texto 8"/>
</g>
</g>
</g>
</svg>
